<mxfile host="app.diagrams.net" modified="2023-01-09T17:21:51.508Z" agent="5.0 (X11; Linux x86_64) AppleWebKit/537.36 (KHTML, like Gecko) Chrome/108.0.0.0 Safari/537.36" version="20.8.0" etag="OM3w4mDGrbH31ABcH7t0" type="github">
  <diagram id="Ya_jOguAvBTEOEKQN9n3" name="Page-1">
    <mxGraphModel dx="1362" dy="806" grid="1" gridSize="10" guides="1" tooltips="1" connect="1" arrows="1" fold="1" page="1" pageScale="1" pageWidth="827" pageHeight="1169" math="0" shadow="0">
      <root>
        <mxCell id="0" />
        <mxCell id="1" parent="0" />
        <mxCell id="QM7Od8goy-GuiUxvCbsR-17" value="" style="edgeStyle=orthogonalEdgeStyle;rounded=0;orthogonalLoop=1;jettySize=auto;html=1;" edge="1" parent="1" source="QM7Od8goy-GuiUxvCbsR-18" target="QM7Od8goy-GuiUxvCbsR-21">
          <mxGeometry relative="1" as="geometry" />
        </mxCell>
        <mxCell id="QM7Od8goy-GuiUxvCbsR-35" value="" style="edgeStyle=orthogonalEdgeStyle;rounded=1;orthogonalLoop=1;jettySize=auto;html=1;fontSize=20;" edge="1" parent="1" source="QM7Od8goy-GuiUxvCbsR-18" target="QM7Od8goy-GuiUxvCbsR-34">
          <mxGeometry relative="1" as="geometry" />
        </mxCell>
        <mxCell id="QM7Od8goy-GuiUxvCbsR-18" value="&lt;b style=&quot;border-color: var(--border-color);&quot;&gt;&lt;font style=&quot;border-color: var(--border-color); font-size: 20px;&quot;&gt;C1&lt;/font&gt;&lt;/b&gt;" style="ellipse;whiteSpace=wrap;html=1;aspect=fixed;fillColor=#d5e8d4;strokeColor=#82b366;" vertex="1" parent="1">
          <mxGeometry x="230" y="300" width="50" height="50" as="geometry" />
        </mxCell>
        <mxCell id="QM7Od8goy-GuiUxvCbsR-19" value="" style="edgeStyle=orthogonalEdgeStyle;rounded=0;orthogonalLoop=1;jettySize=auto;html=1;" edge="1" parent="1" source="QM7Od8goy-GuiUxvCbsR-21" target="QM7Od8goy-GuiUxvCbsR-23">
          <mxGeometry relative="1" as="geometry" />
        </mxCell>
        <mxCell id="QM7Od8goy-GuiUxvCbsR-20" value="" style="edgeStyle=orthogonalEdgeStyle;rounded=1;orthogonalLoop=1;jettySize=auto;html=1;entryX=0.5;entryY=1;entryDx=0;entryDy=0;" edge="1" parent="1" source="QM7Od8goy-GuiUxvCbsR-21" target="QM7Od8goy-GuiUxvCbsR-25">
          <mxGeometry relative="1" as="geometry" />
        </mxCell>
        <mxCell id="QM7Od8goy-GuiUxvCbsR-21" value="&lt;b style=&quot;border-color: var(--border-color);&quot;&gt;&lt;font style=&quot;border-color: var(--border-color); font-size: 20px;&quot;&gt;C2&lt;/font&gt;&lt;/b&gt;" style="ellipse;whiteSpace=wrap;html=1;aspect=fixed;fillColor=#d5e8d4;strokeColor=#82b366;" vertex="1" parent="1">
          <mxGeometry x="230" y="220" width="50" height="50" as="geometry" />
        </mxCell>
        <mxCell id="QM7Od8goy-GuiUxvCbsR-22" value="" style="edgeStyle=orthogonalEdgeStyle;rounded=0;orthogonalLoop=1;jettySize=auto;html=1;" edge="1" parent="1" source="QM7Od8goy-GuiUxvCbsR-23" target="QM7Od8goy-GuiUxvCbsR-31">
          <mxGeometry relative="1" as="geometry" />
        </mxCell>
        <mxCell id="QM7Od8goy-GuiUxvCbsR-23" value="&lt;b style=&quot;border-color: var(--border-color);&quot;&gt;&lt;font style=&quot;border-color: var(--border-color); font-size: 20px;&quot;&gt;C6&lt;/font&gt;&lt;/b&gt;" style="ellipse;whiteSpace=wrap;html=1;aspect=fixed;fillColor=#d5e8d4;strokeColor=#82b366;" vertex="1" parent="1">
          <mxGeometry x="230" y="130" width="50" height="50" as="geometry" />
        </mxCell>
        <mxCell id="QM7Od8goy-GuiUxvCbsR-24" value="" style="edgeStyle=orthogonalEdgeStyle;rounded=0;orthogonalLoop=1;jettySize=auto;html=1;" edge="1" parent="1" source="QM7Od8goy-GuiUxvCbsR-25" target="QM7Od8goy-GuiUxvCbsR-26">
          <mxGeometry relative="1" as="geometry" />
        </mxCell>
        <mxCell id="QM7Od8goy-GuiUxvCbsR-25" value="&lt;b style=&quot;border-color: var(--border-color);&quot;&gt;&lt;font style=&quot;border-color: var(--border-color); font-size: 20px;&quot;&gt;C4&lt;/font&gt;&lt;/b&gt;" style="ellipse;whiteSpace=wrap;html=1;aspect=fixed;fillColor=#ffe6cc;strokeColor=#d79b00;" vertex="1" parent="1">
          <mxGeometry x="290" y="170" width="50" height="50" as="geometry" />
        </mxCell>
        <mxCell id="QM7Od8goy-GuiUxvCbsR-26" value="&lt;b&gt;&lt;font style=&quot;font-size: 20px;&quot;&gt;C5&lt;/font&gt;&lt;/b&gt;" style="ellipse;whiteSpace=wrap;html=1;aspect=fixed;fillColor=#ffe6cc;strokeColor=#d79b00;" vertex="1" parent="1">
          <mxGeometry x="290" y="100" width="50" height="50" as="geometry" />
        </mxCell>
        <mxCell id="QM7Od8goy-GuiUxvCbsR-27" style="edgeStyle=orthogonalEdgeStyle;rounded=1;orthogonalLoop=1;jettySize=auto;html=1;entryX=0;entryY=0.5;entryDx=0;entryDy=0;" edge="1" parent="1" source="QM7Od8goy-GuiUxvCbsR-28" target="QM7Od8goy-GuiUxvCbsR-31">
          <mxGeometry relative="1" as="geometry" />
        </mxCell>
        <mxCell id="QM7Od8goy-GuiUxvCbsR-28" value="main" style="text;html=1;strokeColor=none;fillColor=none;align=center;verticalAlign=middle;whiteSpace=wrap;rounded=0;fontSize=20;" vertex="1" parent="1">
          <mxGeometry x="160" y="60" width="60" height="30" as="geometry" />
        </mxCell>
        <mxCell id="QM7Od8goy-GuiUxvCbsR-29" style="edgeStyle=orthogonalEdgeStyle;rounded=1;orthogonalLoop=1;jettySize=auto;html=1;entryX=1;entryY=0.5;entryDx=0;entryDy=0;" edge="1" parent="1" target="QM7Od8goy-GuiUxvCbsR-26">
          <mxGeometry relative="1" as="geometry">
            <mxPoint x="360" y="125" as="sourcePoint" />
          </mxGeometry>
        </mxCell>
        <mxCell id="QM7Od8goy-GuiUxvCbsR-30" value="devel" style="text;html=1;strokeColor=none;fillColor=none;align=center;verticalAlign=middle;whiteSpace=wrap;rounded=0;fontSize=20;" vertex="1" parent="1">
          <mxGeometry x="360" y="110" width="60" height="30" as="geometry" />
        </mxCell>
        <mxCell id="QM7Od8goy-GuiUxvCbsR-31" value="&lt;b style=&quot;border-color: var(--border-color);&quot;&gt;&lt;font style=&quot;border-color: var(--border-color); font-size: 20px;&quot;&gt;C7&lt;/font&gt;&lt;/b&gt;" style="ellipse;whiteSpace=wrap;html=1;aspect=fixed;fillColor=#d5e8d4;strokeColor=#82b366;" vertex="1" parent="1">
          <mxGeometry x="230" y="50" width="50" height="50" as="geometry" />
        </mxCell>
        <mxCell id="QM7Od8goy-GuiUxvCbsR-34" value="&lt;b style=&quot;border-color: var(--border-color);&quot;&gt;&lt;font style=&quot;border-color: var(--border-color); font-size: 20px;&quot;&gt;C3&lt;/font&gt;&lt;/b&gt;" style="ellipse;whiteSpace=wrap;html=1;aspect=fixed;fillColor=#e1d5e7;strokeColor=#9673a6;" vertex="1" parent="1">
          <mxGeometry x="130" y="240" width="50" height="50" as="geometry" />
        </mxCell>
        <mxCell id="QM7Od8goy-GuiUxvCbsR-37" style="edgeStyle=orthogonalEdgeStyle;rounded=1;orthogonalLoop=1;jettySize=auto;html=1;entryX=0;entryY=0.5;entryDx=0;entryDy=0;fontSize=20;" edge="1" parent="1" source="QM7Od8goy-GuiUxvCbsR-36" target="QM7Od8goy-GuiUxvCbsR-34">
          <mxGeometry relative="1" as="geometry" />
        </mxCell>
        <mxCell id="QM7Od8goy-GuiUxvCbsR-36" value="bug" style="text;html=1;strokeColor=none;fillColor=none;align=center;verticalAlign=middle;whiteSpace=wrap;rounded=0;fontSize=20;" vertex="1" parent="1">
          <mxGeometry x="50" y="250" width="60" height="30" as="geometry" />
        </mxCell>
      </root>
    </mxGraphModel>
  </diagram>
</mxfile>
